<?xml version="1.0" standalone="no"?><!DOCTYPE svg PUBLIC "-//W3C//DTD SVG 1.1//EN" "http://www.w3.org/Graphics/SVG/1.1/DTD/svg11.dtd"><svg class="icon" width="200px" height="200.00px" viewBox="0 0 1024 1024" version="1.1" xmlns="http://www.w3.org/2000/svg"><path d="M511.174704 64.328098C263.915273 64.328098 63.489498 264.753873 63.489498 511.985674c0 247.288083 200.425775 447.685205 447.685205 447.685205 247.260453 0 447.686229-200.397123 447.686229-447.685205C958.860932 264.753873 758.435157 64.328098 511.174704 64.328098zM511.174704 903.766638c-216.327954 0-391.724683-175.370123-391.724683-391.725706 0-216.356606 175.396729-391.725706 391.724683-391.725706 216.328977 0 391.724683 175.3691 391.724683 391.725706C902.899386 728.396515 727.504704 903.766638 511.174704 903.766638zM697.612906 325.359182c-12.871145-12.842493-33.747615-12.842493-46.617737 0L510.328429 465.643206 371.657136 327.327c-12.789281-12.732999-33.500998-12.732999-46.289256 0-12.758582 12.760628-12.758582 33.44574 0 46.178739l138.673339 138.317229-139.630131 139.243321c-12.868075 12.872169-12.868075 33.719986 0 46.563502 12.898775 12.814864 33.774221 12.814864 46.670949 0l139.628084-139.302673L649.355833 696.700629c12.788258 12.730952 33.500998 12.730952 46.287209 0 12.788258-12.787234 12.788258-33.44574 0-46.204321L556.997332 512.178055l140.614551-140.257417C710.508611 359.078145 710.508611 338.202699 697.612906 325.359182z"  /></svg>