<?xml version="1.0" standalone="no"?><!DOCTYPE svg PUBLIC "-//W3C//DTD SVG 1.1//EN" "http://www.w3.org/Graphics/SVG/1.1/DTD/svg11.dtd"><svg class="icon" width="200px" height="200.00px" viewBox="0 0 1024 1024" version="1.1" xmlns="http://www.w3.org/2000/svg"><path d="M576 988.8H448c-70.592 0-128-57.408-128-128v-55.68c0-44.512-26.4-112.32-56.48-145.12-2.88-3.2-71.52-79.296-71.52-190.304 0-176.448 143.552-320 320-320s320 143.552 320 320c0 111.04-68.64 187.136-71.52 190.304C730.368 692.768 704 760.608 704 805.12v55.68c0 70.592-57.408 128-128 128z m-64-775.104c-141.152 0-256 114.848-256 256 0 86.4 54.144 146.464 54.72 147.072C351.808 661.568 384 744.32 384 805.152v55.68c0 35.296 28.704 64 64 64h128c35.296 0 64-28.704 64-64v-55.68c0-60.832 32.192-143.552 73.28-188.384 0.48-0.544 54.72-61.6 54.72-147.072 0-141.152-114.848-256-256-256zM640 576c-13.408 0-25.888-8.48-30.336-21.888l-15.648-46.88-59.36 59.392c-12.512 12.512-32.736 12.512-45.248 0l-59.392-59.392-15.616 46.88c-5.6 16.736-23.68 25.888-40.48 20.224-16.768-5.568-25.824-23.68-20.224-40.48l32-96a32.052 32.052 0 0 1 23.008-21.024c10.752-2.56 22.144 0.672 29.984 8.512L512 498.752l73.376-73.376c7.808-7.84 19.168-11.04 29.984-8.512a31.996 31.996 0 0 1 23.008 21.024l32 96c5.6 16.768-3.456 34.912-20.224 40.48C646.752 575.456 643.328 576 640 576z m223.68-319.68c-8.736 0-17.44-3.552-23.744-10.56-11.84-13.12-10.816-33.344 2.304-45.216l32.512-29.312c13.088-11.84 33.312-10.816 45.184 2.336 11.84 13.12 10.816 33.344-2.304 45.216l-32.512 29.28c-6.112 5.536-13.792 8.256-21.44 8.256z m-703.328 0a31.875 31.875 0 0 1-21.408-8.224l-32.512-29.344c-13.12-11.84-14.144-32.064-2.336-45.216s32.032-14.176 45.216-2.336l32.512 29.312c13.12 11.84 14.144 32.064 2.336 45.216a31.998 31.998 0 0 1-23.808 10.592zM512 128c-17.664 0-32-14.336-32-32V64c0-17.664 14.336-32 32-32s32 14.336 32 32v32c0 17.664-14.336 32-32 32z m64 736H448c-17.664 0-32-14.304-32-32s14.336-32 32-32h128c17.696 0 32 14.304 32 32s-14.304 32-32 32z" fill="#272636" /></svg>