<?xml version="1.0" standalone="no"?><!DOCTYPE svg PUBLIC "-//W3C//DTD SVG 1.1//EN" "http://www.w3.org/Graphics/SVG/1.1/DTD/svg11.dtd"><svg class="icon" width="200px" height="200.00px" viewBox="0 0 1024 1024" version="1.1" xmlns="http://www.w3.org/2000/svg"><path d="M184.422 886.511c-3.686 0-7.373-0.137-11.093-0.444-114.961-9.421-191.556-181.111-174.387-390.827 17.442-213.265 117.35-367.514 232.994-357.581 51.61 4.233 87.381 45.773 112.811 81.51 10.923 15.36 7.339 36.659-8.021 47.616-15.394 10.923-36.659 7.27-47.616-8.055-25.020-35.157-44.373-51.507-62.737-53.043-62.942-4.54-144.623 114.756-159.369 295.117-14.746 180.326 47.138 311.876 111.923 317.167 56.491 5.291 112.026-65.229 141.005-177.971 3.857-15.053 17.442-25.6 33.041-25.6h319.898c15.394 0 28.877 10.308 32.939 25.122 31.095 113.801 86.63 183.842 144.35 177.971 31.369-3.174 61.099-35.874 81.545-89.702 23.689-62.498 32.017-144.043 23.347-229.581s-33.143-163.772-68.949-220.331c-30.857-48.742-66.15-75.298-97.86-71.68-19.558 2.014-42.257 20.48-63.795 51.985-6.349 9.318-16.896 14.882-28.194 14.882h-252.518c-18.842 0-34.133-15.292-34.133-34.133s15.292-34.133 34.133-34.133h235.179c31.232-40.448 65.673-62.771 102.468-66.492 114.483-11.674 220.365 143.565 241.596 353.075 9.694 95.881-0.034 188.45-27.477 260.676-30.413 80.077-79.565 127.42-138.479 133.393-87.211 8.909-166.537-68.233-209.647-202.752h-268.595c-38.912 127.488-111.479 203.81-194.355 203.81zM307.2 443.733h-34.133v-34.133c0-18.842-15.292-34.133-34.133-34.133s-34.133 15.292-34.133 34.133v34.133h-34.133c-18.842 0-34.133 15.292-34.133 34.133s15.292 34.133 34.133 34.133h34.133v34.133c0 18.876 15.292 34.133 34.133 34.133s34.133-15.258 34.133-34.133v-34.133h34.133c18.842 0 34.133-15.292 34.133-34.133s-15.292-34.133-34.133-34.133zM750.933 375.467c0 37.702 30.564 68.267 68.267 68.267s68.267-30.564 68.267-68.267c0-37.702-30.564-68.267-68.267-68.267-37.702 0-68.267 30.564-68.267 68.267zM614.4 512c0 37.702 30.564 68.267 68.267 68.267s68.267-30.564 68.267-68.267c0-37.702-30.564-68.267-68.267-68.267-37.702 0-68.267 30.564-68.267 68.267z"  /></svg>