<?xml version="1.0" standalone="no"?><!DOCTYPE svg PUBLIC "-//W3C//DTD SVG 1.1//EN" "http://www.w3.org/Graphics/SVG/1.1/DTD/svg11.dtd"><svg class="icon" width="200px" height="200.00px" viewBox="0 0 1024 1024" version="1.1" xmlns="http://www.w3.org/2000/svg"><path d="M469.3 725.3l85.3 0 0-256-85.3 0L469.3 725.3zM512 85.3C276.2 85.3 85.3 276.2 85.3 512S276.2 938.7 512 938.7 938.7 747.8 938.7 512 747.8 85.3 512 85.3zM512 853.4c-188.2 0-341.4-153.2-341.4-341.4S323.8 170.6 512 170.6 853.4 323.8 853.4 512 700.2 853.4 512 853.4zM469.3 384l85.3 0 0-85.3-85.3 0L469.3 384z"  /></svg>