<?xml version="1.0" standalone="no"?><!DOCTYPE svg PUBLIC "-//W3C//DTD SVG 1.1//EN" "http://www.w3.org/Graphics/SVG/1.1/DTD/svg11.dtd"><svg class="icon" width="200px" height="200.00px" viewBox="0 0 1024 1024" version="1.1" xmlns="http://www.w3.org/2000/svg"><path d="M992.22016 367.7696c-16.01536-56.35584-83.2512-94.0544-179.16928-109.8496 14.3104 16.73216 27.25376 34.64192 38.62528 53.60128 53.42208 15.1552 89.57952 38.70208 97.92512 68.04992 4.8384 16.99328 0.6912 36.93056-12.32384 59.19744-14.04416 24.05376-39.33184 50.95424-74.56256 78.02368 0.02048-1.73056 0.26112-3.38944 0.26112-5.12512 0-193.16736-158.55104-349.7472-354.0992-349.7472-195.54816 0-354.09408 156.57984-354.09408 349.7472 0 59.15648 14.99648 114.81088 41.23648 163.64544-70.02624-14.09024-118.04672-40.7552-127.86176-75.2896-4.8384-17.01376-0.6912-36.88448 12.32384-59.19744 7.08608-12.10368 17.93536-25.08288 30.5152-38.2976 0.51712-22.7072 2.80576-44.99456 7.0656-66.62144C46.40256 493.77792 9.856 556.62592 25.5488 611.82976c17.35168 61.00992 94.57664 100.224 203.33056 113.37728 64.77312 82.71872 165.9392 136.21248 280.00768 136.21248 173.63456 0 317.78304-123.53536 348.00128-286.43328C956.49792 509.18912 1010.81088 433.11616 992.22016 367.7696zM508.88704 817.69984c-84.6336 0-161.26976-33.60256-217.18016-87.95136 7.54176 0.23552 15.104 0.40448 22.8864 0.40448 76.98432 0 163.73248-10.73664 253.16864-33.31584 88.91392-22.46144 168.9856-53.87776 235.4432-89.89184C762.63424 729.25696 646.29248 817.69984 508.88704 817.69984zM816.20992 548.7872c-65.05472 40.35072-152.32 78.6688-259.38944 105.71264-82.8416 20.92032-166.58944 31.95392-242.23232 31.95392-21.87264 0-42.35776 1.87392-62.15168 0.08192-33.67424-48.9728-53.38624-111.21664-53.38624-174.8736 0-169.00096 138.70592-306.02752 309.83168-306.02752 171.12576 0 309.8368 137.02656 309.8368 306.02752C818.71872 524.2624 817.72544 536.6016 816.20992 548.7872zM353.91488 599.10656c-48.8192 0-88.5248-39.22432-88.5248-87.43936 0-48.20992 39.7056-87.43424 88.5248-87.43424 48.82432 0 88.5248 39.22944 88.5248 87.43424C442.43968 559.88224 402.7392 599.10656 353.91488 599.10656zM353.91488 467.95264c-24.40192 0-44.2624 19.60448-44.2624 43.71456 0 24.1152 19.86048 43.71968 44.2624 43.71968s44.2624-19.60448 44.2624-43.71968C398.17728 487.55712 378.3168 467.95264 353.91488 467.95264zM542.0288 358.656c-30.5152 0-55.32672-24.51968-55.32672-54.64576 0-30.1312 24.81152-54.65088 55.32672-54.65088 30.5152 0 55.32672 24.51456 55.32672 54.65088C597.35552 334.13632 572.54912 358.656 542.0288 358.656zM542.0288 293.07392c-6.0928 0-11.06944 4.89984-11.06944 10.9312 0 6.02624 4.97152 10.92608 11.06944 10.92608s11.06432-4.89984 11.06432-10.92608C553.09312 297.97376 548.12672 293.07392 542.0288 293.07392zM663.75168 555.38688c-24.40192 0-44.2624-19.6096-44.2624-43.71968 0-24.11008 19.86048-43.71456 44.2624-43.71456 24.3968 0 44.2624 19.6096 44.2624 43.71456C708.01408 535.77728 688.14848 555.38688 663.75168 555.38688z"  /></svg>